<mxfile host="app.diagrams.net" modified="2023-05-08T09:12:12.631Z" agent="Mozilla/5.0 (Windows NT 10.0; Win64; x64) AppleWebKit/537.36 (KHTML, like Gecko) Chrome/112.0.0.0 Safari/537.36" etag="nBO5TrLaiO-SOjxNTdCN" version="21.2.9" type="device">
  <diagram id="4rk9pIrgLvxPIjYd_XBf" name="Page-1">
    <mxGraphModel dx="1434" dy="777" grid="1" gridSize="10" guides="1" tooltips="1" connect="1" arrows="1" fold="1" page="1" pageScale="1" pageWidth="827" pageHeight="1169" math="0" shadow="0">
      <root>
        <mxCell id="0" />
        <mxCell id="1" parent="0" />
        <mxCell id="N4-L-gVo2aN7_rsNjKvQ-1" value="User" style="shape=umlActor;verticalLabelPosition=bottom;verticalAlign=top;html=1;outlineConnect=0;" parent="1" vertex="1">
          <mxGeometry x="70" y="430" width="90" height="190" as="geometry" />
        </mxCell>
        <mxCell id="N4-L-gVo2aN7_rsNjKvQ-2" value="Ajout d&#39;une location" style="ellipse;whiteSpace=wrap;html=1;" parent="1" vertex="1">
          <mxGeometry x="294" y="430" width="120" height="80" as="geometry" />
        </mxCell>
        <mxCell id="N4-L-gVo2aN7_rsNjKvQ-3" value="&lt;div style=&quot;&quot;&gt;&lt;span style=&quot;background-color: initial;&quot;&gt;Modification d&#39;une location&lt;/span&gt;&lt;/div&gt;" style="ellipse;whiteSpace=wrap;html=1;align=center;" parent="1" vertex="1">
          <mxGeometry x="294" y="540" width="120" height="80" as="geometry" />
        </mxCell>
        <mxCell id="N4-L-gVo2aN7_rsNjKvQ-4" value="&lt;span style=&quot;text-indent: -18pt; background-color: initial;&quot; lang=&quot;FR&quot;&gt;Réservation d&#39;une location&lt;br&gt;&lt;/span&gt;" style="ellipse;whiteSpace=wrap;html=1;" parent="1" vertex="1">
          <mxGeometry x="210" y="650" width="120" height="80" as="geometry" />
        </mxCell>
        <mxCell id="N4-L-gVo2aN7_rsNjKvQ-5" value="&lt;span style=&quot;text-indent: -18pt; background-color: initial;&quot; lang=&quot;FR&quot;&gt;Déconnexion&lt;br&gt;&lt;/span&gt;" style="ellipse;whiteSpace=wrap;html=1;" parent="1" vertex="1">
          <mxGeometry x="210" y="320" width="120" height="80" as="geometry" />
        </mxCell>
        <mxCell id="N4-L-gVo2aN7_rsNjKvQ-6" value="" style="endArrow=none;html=1;rounded=0;entryX=0.025;entryY=0.275;entryDx=0;entryDy=0;entryPerimeter=0;" parent="1" target="N4-L-gVo2aN7_rsNjKvQ-3" edge="1">
          <mxGeometry width="50" height="50" relative="1" as="geometry">
            <mxPoint x="170" y="530" as="sourcePoint" />
            <mxPoint x="310" y="600" as="targetPoint" />
          </mxGeometry>
        </mxCell>
        <mxCell id="N4-L-gVo2aN7_rsNjKvQ-7" value="" style="endArrow=none;html=1;rounded=0;entryX=0.033;entryY=0.7;entryDx=0;entryDy=0;entryPerimeter=0;" parent="1" target="N4-L-gVo2aN7_rsNjKvQ-2" edge="1">
          <mxGeometry width="50" height="50" relative="1" as="geometry">
            <mxPoint x="170" y="530" as="sourcePoint" />
            <mxPoint x="190" y="1115" as="targetPoint" />
          </mxGeometry>
        </mxCell>
        <mxCell id="N4-L-gVo2aN7_rsNjKvQ-8" value="" style="endArrow=none;html=1;rounded=0;entryX=0.283;entryY=0.938;entryDx=0;entryDy=0;entryPerimeter=0;" parent="1" target="N4-L-gVo2aN7_rsNjKvQ-5" edge="1">
          <mxGeometry width="50" height="50" relative="1" as="geometry">
            <mxPoint x="170" y="530" as="sourcePoint" />
            <mxPoint x="530" y="620" as="targetPoint" />
          </mxGeometry>
        </mxCell>
        <mxCell id="N4-L-gVo2aN7_rsNjKvQ-9" value="" style="endArrow=none;html=1;rounded=0;entryX=0.3;entryY=0.013;entryDx=0;entryDy=0;entryPerimeter=0;" parent="1" target="N4-L-gVo2aN7_rsNjKvQ-4" edge="1">
          <mxGeometry width="50" height="50" relative="1" as="geometry">
            <mxPoint x="170" y="530" as="sourcePoint" />
            <mxPoint x="510" y="530" as="targetPoint" />
          </mxGeometry>
        </mxCell>
      </root>
    </mxGraphModel>
  </diagram>
</mxfile>
